<mxfile host="ffe66d3d-3ad0-41a8-9420-12debd7cdab8" modified="2020-08-17T01:20:34.774Z" agent="5.0 (Windows NT 10.0; Win64; x64) AppleWebKit/537.36 (KHTML, like Gecko) Code-Insiders/1.49.0-insider Chrome/83.0.4103.122 Electron/9.2.0 Safari/537.36" etag="vBphK7hcyxuIoSg-806z" version="13.1.3">
    <diagram id="6hGFLwfOUW9BJ-s0fimq" name="append">
        <mxGraphModel dx="2067" dy="749" grid="1" gridSize="10" guides="1" tooltips="1" connect="1" arrows="1" fold="1" page="1" pageScale="1" pageWidth="827" pageHeight="1169" math="0" shadow="0">
            <root>
                <mxCell id="0"/>
                <mxCell id="1" parent="0"/>
                <mxCell id="11" value="" style="group" vertex="1" connectable="0" parent="1">
                    <mxGeometry x="30" y="80" width="170" height="180" as="geometry"/>
                </mxCell>
                <mxCell id="4" value="&lt;font style=&quot;font-size: 23px&quot;&gt;head/tail&lt;/font&gt;" style="text;html=1;strokeColor=none;fillColor=none;align=center;verticalAlign=middle;whiteSpace=wrap;rounded=0;fontSize=29;" parent="11" vertex="1">
                    <mxGeometry width="120" height="50" as="geometry"/>
                </mxCell>
                <mxCell id="10" value="" style="group" vertex="1" connectable="0" parent="11">
                    <mxGeometry x="20" y="60" width="150" height="120" as="geometry"/>
                </mxCell>
                <mxCell id="9" value="" style="shape=flexArrow;endArrow=classic;html=1;exitX=1;exitY=0.75;exitDx=0;exitDy=0;" edge="1" parent="10" source="2">
                    <mxGeometry width="50" height="50" relative="1" as="geometry">
                        <mxPoint x="90" y="100" as="sourcePoint"/>
                        <mxPoint x="150" y="30" as="targetPoint"/>
                    </mxGeometry>
                </mxCell>
                <mxCell id="8" value="" style="group" vertex="1" connectable="0" parent="10">
                    <mxGeometry width="80" height="120" as="geometry"/>
                </mxCell>
                <mxCell id="2" value="" style="rounded=0;whiteSpace=wrap;html=1;" parent="8" vertex="1">
                    <mxGeometry width="80" height="120" as="geometry"/>
                </mxCell>
                <mxCell id="5" value="" style="endArrow=none;html=1;rounded=0;exitX=0;exitY=0.5;exitDx=0;exitDy=0;entryX=1;entryY=0.5;entryDx=0;entryDy=0;" edge="1" parent="8" source="2" target="2">
                    <mxGeometry width="50" height="50" relative="1" as="geometry">
                        <mxPoint x="5" y="59.5" as="sourcePoint"/>
                        <mxPoint x="75" y="59.5" as="targetPoint"/>
                    </mxGeometry>
                </mxCell>
                <mxCell id="6" value="value: 5" style="text;html=1;strokeColor=none;fillColor=none;align=center;verticalAlign=middle;whiteSpace=wrap;rounded=0;" vertex="1" parent="8">
                    <mxGeometry x="10" y="20" width="60" height="20" as="geometry"/>
                </mxCell>
                <mxCell id="7" value="next:&amp;nbsp;" style="text;html=1;strokeColor=none;fillColor=none;align=center;verticalAlign=middle;whiteSpace=wrap;rounded=0;" vertex="1" parent="8">
                    <mxGeometry x="10" y="80" width="60" height="20" as="geometry"/>
                </mxCell>
                <mxCell id="13" value="" style="group" vertex="1" connectable="0" parent="1">
                    <mxGeometry x="30" y="360" width="170" height="180" as="geometry"/>
                </mxCell>
                <mxCell id="14" value="&lt;font style=&quot;font-size: 24px&quot;&gt;head&lt;/font&gt;" style="text;html=1;strokeColor=none;fillColor=none;align=center;verticalAlign=middle;whiteSpace=wrap;rounded=0;fontSize=29;" vertex="1" parent="13">
                    <mxGeometry width="120" height="50" as="geometry"/>
                </mxCell>
                <mxCell id="15" value="" style="group" vertex="1" connectable="0" parent="13">
                    <mxGeometry x="20" y="60" width="150" height="120" as="geometry"/>
                </mxCell>
                <mxCell id="16" value="" style="shape=flexArrow;endArrow=classic;html=1;exitX=1;exitY=0.75;exitDx=0;exitDy=0;" edge="1" parent="15" source="18">
                    <mxGeometry width="50" height="50" relative="1" as="geometry">
                        <mxPoint x="90" y="100" as="sourcePoint"/>
                        <mxPoint x="150" y="30" as="targetPoint"/>
                    </mxGeometry>
                </mxCell>
                <mxCell id="17" value="" style="group" vertex="1" connectable="0" parent="15">
                    <mxGeometry width="80" height="120" as="geometry"/>
                </mxCell>
                <mxCell id="18" value="" style="rounded=0;whiteSpace=wrap;html=1;" vertex="1" parent="17">
                    <mxGeometry width="80" height="120" as="geometry"/>
                </mxCell>
                <mxCell id="19" value="" style="endArrow=none;html=1;rounded=0;exitX=0;exitY=0.5;exitDx=0;exitDy=0;entryX=1;entryY=0.5;entryDx=0;entryDy=0;" edge="1" parent="17" source="18" target="18">
                    <mxGeometry width="50" height="50" relative="1" as="geometry">
                        <mxPoint x="5" y="59.5" as="sourcePoint"/>
                        <mxPoint x="75" y="59.5" as="targetPoint"/>
                    </mxGeometry>
                </mxCell>
                <mxCell id="20" value="value: 5" style="text;html=1;strokeColor=none;fillColor=none;align=center;verticalAlign=middle;whiteSpace=wrap;rounded=0;" vertex="1" parent="17">
                    <mxGeometry x="10" y="20" width="60" height="20" as="geometry"/>
                </mxCell>
                <mxCell id="21" value="next:" style="text;html=1;strokeColor=none;fillColor=none;align=center;verticalAlign=middle;whiteSpace=wrap;rounded=0;" vertex="1" parent="17">
                    <mxGeometry x="10" y="80" width="60" height="20" as="geometry"/>
                </mxCell>
                <mxCell id="22" value="null" style="text;html=1;strokeColor=none;fillColor=none;align=center;verticalAlign=middle;whiteSpace=wrap;rounded=0;fontSize=21;" vertex="1" parent="1">
                    <mxGeometry x="200" y="140" width="50" height="30" as="geometry"/>
                </mxCell>
                <mxCell id="30" value="" style="group" vertex="1" connectable="0" parent="1">
                    <mxGeometry x="190" y="360" width="170" height="180" as="geometry"/>
                </mxCell>
                <mxCell id="31" value="&lt;font style=&quot;font-size: 24px&quot;&gt;tail&lt;/font&gt;" style="text;html=1;strokeColor=none;fillColor=none;align=center;verticalAlign=middle;whiteSpace=wrap;rounded=0;fontSize=29;" vertex="1" parent="30">
                    <mxGeometry width="120" height="50" as="geometry"/>
                </mxCell>
                <mxCell id="32" value="" style="group" vertex="1" connectable="0" parent="30">
                    <mxGeometry x="20" y="60" width="150" height="120" as="geometry"/>
                </mxCell>
                <mxCell id="33" value="" style="shape=flexArrow;endArrow=classic;html=1;exitX=1;exitY=0.75;exitDx=0;exitDy=0;" edge="1" parent="32" source="35">
                    <mxGeometry width="50" height="50" relative="1" as="geometry">
                        <mxPoint x="90" y="100" as="sourcePoint"/>
                        <mxPoint x="150" y="30" as="targetPoint"/>
                    </mxGeometry>
                </mxCell>
                <mxCell id="34" value="" style="group" vertex="1" connectable="0" parent="32">
                    <mxGeometry width="80" height="120" as="geometry"/>
                </mxCell>
                <mxCell id="35" value="" style="rounded=0;whiteSpace=wrap;html=1;" vertex="1" parent="34">
                    <mxGeometry width="80" height="120" as="geometry"/>
                </mxCell>
                <mxCell id="36" value="" style="endArrow=none;html=1;rounded=0;exitX=0;exitY=0.5;exitDx=0;exitDy=0;entryX=1;entryY=0.5;entryDx=0;entryDy=0;" edge="1" parent="34" source="35" target="35">
                    <mxGeometry width="50" height="50" relative="1" as="geometry">
                        <mxPoint x="5" y="59.5" as="sourcePoint"/>
                        <mxPoint x="75" y="59.5" as="targetPoint"/>
                    </mxGeometry>
                </mxCell>
                <mxCell id="37" value="value: 10" style="text;html=1;strokeColor=none;fillColor=none;align=center;verticalAlign=middle;whiteSpace=wrap;rounded=0;" vertex="1" parent="34">
                    <mxGeometry x="10" y="20" width="60" height="20" as="geometry"/>
                </mxCell>
                <mxCell id="38" value="next:" style="text;html=1;strokeColor=none;fillColor=none;align=center;verticalAlign=middle;whiteSpace=wrap;rounded=0;" vertex="1" parent="34">
                    <mxGeometry x="10" y="80" width="60" height="20" as="geometry"/>
                </mxCell>
                <mxCell id="39" value="null" style="text;html=1;strokeColor=none;fillColor=none;align=center;verticalAlign=middle;whiteSpace=wrap;rounded=0;fontSize=21;" vertex="1" parent="1">
                    <mxGeometry x="360" y="420" width="50" height="30" as="geometry"/>
                </mxCell>
                <mxCell id="40" value="" style="group" vertex="1" connectable="0" parent="1">
                    <mxGeometry x="30" y="675" width="170" height="180" as="geometry"/>
                </mxCell>
                <mxCell id="41" value="&lt;font style=&quot;font-size: 24px&quot;&gt;head&lt;/font&gt;" style="text;html=1;strokeColor=none;fillColor=none;align=center;verticalAlign=middle;whiteSpace=wrap;rounded=0;fontSize=29;" vertex="1" parent="40">
                    <mxGeometry width="120" height="50" as="geometry"/>
                </mxCell>
                <mxCell id="42" value="" style="group" vertex="1" connectable="0" parent="40">
                    <mxGeometry x="20" y="55" width="150" height="120" as="geometry"/>
                </mxCell>
                <mxCell id="43" value="" style="shape=flexArrow;endArrow=classic;html=1;exitX=1;exitY=0.75;exitDx=0;exitDy=0;" edge="1" parent="42" source="45">
                    <mxGeometry width="50" height="50" relative="1" as="geometry">
                        <mxPoint x="90" y="100" as="sourcePoint"/>
                        <mxPoint x="150" y="30" as="targetPoint"/>
                    </mxGeometry>
                </mxCell>
                <mxCell id="44" value="" style="group" vertex="1" connectable="0" parent="42">
                    <mxGeometry width="80" height="120" as="geometry"/>
                </mxCell>
                <mxCell id="45" value="" style="rounded=0;whiteSpace=wrap;html=1;" vertex="1" parent="44">
                    <mxGeometry width="80" height="120" as="geometry"/>
                </mxCell>
                <mxCell id="46" value="" style="endArrow=none;html=1;rounded=0;exitX=0;exitY=0.5;exitDx=0;exitDy=0;entryX=1;entryY=0.5;entryDx=0;entryDy=0;" edge="1" parent="44" source="45" target="45">
                    <mxGeometry width="50" height="50" relative="1" as="geometry">
                        <mxPoint x="5" y="59.5" as="sourcePoint"/>
                        <mxPoint x="75" y="59.5" as="targetPoint"/>
                    </mxGeometry>
                </mxCell>
                <mxCell id="47" value="value: 5" style="text;html=1;strokeColor=none;fillColor=none;align=center;verticalAlign=middle;whiteSpace=wrap;rounded=0;" vertex="1" parent="44">
                    <mxGeometry x="10" y="20" width="60" height="20" as="geometry"/>
                </mxCell>
                <mxCell id="48" value="next:" style="text;html=1;strokeColor=none;fillColor=none;align=center;verticalAlign=middle;whiteSpace=wrap;rounded=0;" vertex="1" parent="44">
                    <mxGeometry x="10" y="80" width="60" height="20" as="geometry"/>
                </mxCell>
                <mxCell id="59" value="" style="group" vertex="1" connectable="0" parent="40">
                    <mxGeometry x="180" y="55" width="150" height="120" as="geometry"/>
                </mxCell>
                <mxCell id="60" value="" style="shape=flexArrow;endArrow=classic;html=1;exitX=1;exitY=0.75;exitDx=0;exitDy=0;" edge="1" parent="59" source="62">
                    <mxGeometry width="50" height="50" relative="1" as="geometry">
                        <mxPoint x="90" y="100" as="sourcePoint"/>
                        <mxPoint x="150" y="30" as="targetPoint"/>
                    </mxGeometry>
                </mxCell>
                <mxCell id="61" value="" style="group" vertex="1" connectable="0" parent="59">
                    <mxGeometry width="80" height="120" as="geometry"/>
                </mxCell>
                <mxCell id="62" value="" style="rounded=0;whiteSpace=wrap;html=1;" vertex="1" parent="61">
                    <mxGeometry width="80" height="120" as="geometry"/>
                </mxCell>
                <mxCell id="63" value="" style="endArrow=none;html=1;rounded=0;exitX=0;exitY=0.5;exitDx=0;exitDy=0;entryX=1;entryY=0.5;entryDx=0;entryDy=0;" edge="1" parent="61" source="62" target="62">
                    <mxGeometry width="50" height="50" relative="1" as="geometry">
                        <mxPoint x="5" y="59.5" as="sourcePoint"/>
                        <mxPoint x="75" y="59.5" as="targetPoint"/>
                    </mxGeometry>
                </mxCell>
                <mxCell id="64" value="value: 10" style="text;html=1;strokeColor=none;fillColor=none;align=center;verticalAlign=middle;whiteSpace=wrap;rounded=0;" vertex="1" parent="61">
                    <mxGeometry x="10" y="20" width="60" height="20" as="geometry"/>
                </mxCell>
                <mxCell id="65" value="next:" style="text;html=1;strokeColor=none;fillColor=none;align=center;verticalAlign=middle;whiteSpace=wrap;rounded=0;" vertex="1" parent="61">
                    <mxGeometry x="10" y="80" width="60" height="20" as="geometry"/>
                </mxCell>
                <mxCell id="49" value="" style="group" vertex="1" connectable="0" parent="1">
                    <mxGeometry x="350" y="670" width="170" height="180" as="geometry"/>
                </mxCell>
                <mxCell id="50" value="&lt;font style=&quot;font-size: 24px&quot;&gt;tail&lt;/font&gt;" style="text;html=1;strokeColor=none;fillColor=none;align=center;verticalAlign=middle;whiteSpace=wrap;rounded=0;fontSize=29;" vertex="1" parent="49">
                    <mxGeometry width="120" height="50" as="geometry"/>
                </mxCell>
                <mxCell id="51" value="" style="group" vertex="1" connectable="0" parent="49">
                    <mxGeometry x="20" y="60" width="150" height="120" as="geometry"/>
                </mxCell>
                <mxCell id="52" value="" style="shape=flexArrow;endArrow=classic;html=1;exitX=1;exitY=0.75;exitDx=0;exitDy=0;" edge="1" parent="51" source="54">
                    <mxGeometry width="50" height="50" relative="1" as="geometry">
                        <mxPoint x="90" y="100" as="sourcePoint"/>
                        <mxPoint x="150" y="30" as="targetPoint"/>
                    </mxGeometry>
                </mxCell>
                <mxCell id="53" value="" style="group" vertex="1" connectable="0" parent="51">
                    <mxGeometry width="80" height="120" as="geometry"/>
                </mxCell>
                <mxCell id="54" value="" style="rounded=0;whiteSpace=wrap;html=1;" vertex="1" parent="53">
                    <mxGeometry width="80" height="120" as="geometry"/>
                </mxCell>
                <mxCell id="55" value="" style="endArrow=none;html=1;rounded=0;exitX=0;exitY=0.5;exitDx=0;exitDy=0;entryX=1;entryY=0.5;entryDx=0;entryDy=0;" edge="1" parent="53" source="54" target="54">
                    <mxGeometry width="50" height="50" relative="1" as="geometry">
                        <mxPoint x="5" y="59.5" as="sourcePoint"/>
                        <mxPoint x="75" y="59.5" as="targetPoint"/>
                    </mxGeometry>
                </mxCell>
                <mxCell id="56" value="value: 15" style="text;html=1;strokeColor=none;fillColor=none;align=center;verticalAlign=middle;whiteSpace=wrap;rounded=0;" vertex="1" parent="53">
                    <mxGeometry x="10" y="20" width="60" height="20" as="geometry"/>
                </mxCell>
                <mxCell id="57" value="next:" style="text;html=1;strokeColor=none;fillColor=none;align=center;verticalAlign=middle;whiteSpace=wrap;rounded=0;" vertex="1" parent="53">
                    <mxGeometry x="10" y="80" width="60" height="20" as="geometry"/>
                </mxCell>
                <mxCell id="58" value="null" style="text;html=1;strokeColor=none;fillColor=none;align=center;verticalAlign=middle;whiteSpace=wrap;rounded=0;fontSize=21;" vertex="1" parent="1">
                    <mxGeometry x="520" y="740" width="50" height="30" as="geometry"/>
                </mxCell>
                <mxCell id="66" value="&lt;div style=&quot;color: rgb(199 , 208 , 217) ; background-color: rgb(11 , 16 , 21) ; font-family: &amp;#34;operator mono lig&amp;#34; , &amp;#34;consolas&amp;#34; , &amp;#34;courier new&amp;#34; , monospace ; font-size: 16px ; line-height: 18px&quot;&gt;&lt;span style=&quot;color: #d55fde&quot;&gt;new&lt;/span&gt;&amp;nbsp;&lt;span style=&quot;color: #e5c07b&quot;&gt;LinkedList&lt;/span&gt;(&lt;span style=&quot;color: #f99157&quot;&gt;5&lt;/span&gt;);&lt;/div&gt;&lt;div style=&quot;color: rgb(199 , 208 , 217) ; background-color: rgb(11 , 16 , 21) ; font-family: &amp;#34;operator mono lig&amp;#34; , &amp;#34;consolas&amp;#34; , &amp;#34;courier new&amp;#34; , monospace ; font-size: 16px ; line-height: 18px&quot;&gt;&lt;br&gt;&lt;div style=&quot;font-family: &amp;#34;operator mono lig&amp;#34; , &amp;#34;consolas&amp;#34; , &amp;#34;courier new&amp;#34; , monospace ; line-height: 18px&quot;&gt;&lt;div&gt;&lt;span style=&quot;color: #b267e6&quot;&gt;constructor&lt;/span&gt;&lt;span style=&quot;color: #5fb3b3&quot;&gt;(&lt;/span&gt;&lt;span style=&quot;color: #f99157 ; font-style: italic&quot;&gt;value&lt;/span&gt;&lt;span style=&quot;color: #5fb3b3&quot;&gt;)&lt;/span&gt;&amp;nbsp;&lt;span style=&quot;color: #5fb3b3&quot;&gt;{&lt;/span&gt;&lt;/div&gt;&lt;div&gt;&amp;nbsp;&amp;nbsp;&lt;span style=&quot;color: #e5c07b ; font-style: italic&quot;&gt;this&lt;/span&gt;&lt;span style=&quot;color: #5fb3b3&quot;&gt;.&lt;/span&gt;&lt;span style=&quot;color: #cdd3de&quot;&gt;head&lt;/span&gt;&amp;nbsp;&lt;span style=&quot;color: #5fb3b3&quot;&gt;=&lt;/span&gt;&amp;nbsp;&lt;span style=&quot;color: #5fb3b3&quot;&gt;{&lt;/span&gt;&lt;/div&gt;&lt;div&gt;&amp;nbsp; &amp;nbsp;&amp;nbsp;&lt;span style=&quot;color: #ef596f&quot;&gt;value&lt;/span&gt;&lt;span style=&quot;color: #5fb3b3&quot;&gt;,&lt;/span&gt;&lt;/div&gt;&lt;div&gt;&amp;nbsp; &amp;nbsp;&amp;nbsp;&lt;span style=&quot;color: #ef596f&quot;&gt;next&lt;/span&gt;&lt;span style=&quot;color: #bbbbbb&quot;&gt;:&lt;/span&gt;&amp;nbsp;&lt;span style=&quot;color: #f99157&quot;&gt;null&lt;/span&gt;&lt;/div&gt;&lt;div&gt;&amp;nbsp;&amp;nbsp;&lt;span style=&quot;color: #5fb3b3&quot;&gt;}&lt;/span&gt;&lt;/div&gt;&lt;div&gt;&amp;nbsp;&lt;span style=&quot;color: #e5c07b ; font-style: italic&quot;&gt;this&lt;/span&gt;&lt;span style=&quot;color: #5fb3b3&quot;&gt;.&lt;/span&gt;&lt;span style=&quot;color: #cdd3de&quot;&gt;tail&lt;/span&gt;&amp;nbsp;&lt;span style=&quot;color: #5fb3b3&quot;&gt;=&lt;/span&gt;&amp;nbsp;&lt;span style=&quot;color: #e5c07b ; font-style: italic&quot;&gt;this&lt;/span&gt;&lt;span style=&quot;color: #5fb3b3&quot;&gt;.&lt;/span&gt;&lt;span style=&quot;color: #cdd3de&quot;&gt;head&lt;/span&gt;&lt;span style=&quot;color: #5fb3b3&quot;&gt;;&amp;nbsp; &amp;nbsp;&lt;/span&gt;&lt;/div&gt;&lt;div&gt;&amp;nbsp;&lt;span style=&quot;color: #e5c07b ; font-style: italic&quot;&gt;this&lt;/span&gt;&lt;span style=&quot;color: #5fb3b3&quot;&gt;.&lt;/span&gt;&lt;span style=&quot;color: #ef596f&quot;&gt;length&lt;/span&gt;&amp;nbsp;&lt;span style=&quot;color: #5fb3b3&quot;&gt;=&lt;/span&gt;&amp;nbsp;&lt;span style=&quot;color: #f99157&quot;&gt;1&lt;/span&gt;&lt;span style=&quot;color: #5fb3b3&quot;&gt;;&lt;/span&gt;&lt;/div&gt;&lt;div&gt;&lt;span style=&quot;color: #5fb3b3&quot;&gt;}&lt;/span&gt;&lt;/div&gt;&lt;/div&gt;&lt;/div&gt;" style="text;html=1;strokeColor=none;fillColor=none;align=left;verticalAlign=middle;whiteSpace=wrap;rounded=0;fontSize=21;" vertex="1" parent="1">
                    <mxGeometry x="-230" y="90.75" width="230" height="199.25" as="geometry"/>
                </mxCell>
                <mxCell id="68" value="&lt;div style=&quot;color: rgb(199 , 208 , 217) ; background-color: rgb(11 , 16 , 21) ; font-family: &amp;#34;operator mono lig&amp;#34; , &amp;#34;consolas&amp;#34; , &amp;#34;courier new&amp;#34; , monospace ; font-size: 16px ; line-height: 18px&quot;&gt;&lt;span style=&quot;font-family: &amp;#34;operator mono lig&amp;#34; , &amp;#34;consolas&amp;#34; , &amp;#34;courier new&amp;#34; , monospace ; color: rgb(205 , 211 , 222)&quot;&gt;myLink&lt;/span&gt;&lt;span style=&quot;font-family: &amp;#34;operator mono lig&amp;#34; , &amp;#34;consolas&amp;#34; , &amp;#34;courier new&amp;#34; , monospace ; color: rgb(95 , 179 , 179)&quot;&gt;.&lt;/span&gt;&lt;span style=&quot;font-family: &amp;#34;operator mono lig&amp;#34; , &amp;#34;consolas&amp;#34; , &amp;#34;courier new&amp;#34; , monospace ; color: rgb(102 , 153 , 204)&quot;&gt;append&lt;/span&gt;&lt;span style=&quot;font-family: &amp;#34;operator mono lig&amp;#34; , &amp;#34;consolas&amp;#34; , &amp;#34;courier new&amp;#34; , monospace&quot;&gt;(&lt;/span&gt;&lt;span style=&quot;font-family: &amp;#34;operator mono lig&amp;#34; , &amp;#34;consolas&amp;#34; , &amp;#34;courier new&amp;#34; , monospace ; color: rgb(249 , 145 , 87)&quot;&gt;10&lt;/span&gt;&lt;span style=&quot;font-family: &amp;#34;operator mono lig&amp;#34; , &amp;#34;consolas&amp;#34; , &amp;#34;courier new&amp;#34; , monospace&quot;&gt;)&lt;/span&gt;&lt;span style=&quot;font-family: &amp;#34;operator mono lig&amp;#34; , &amp;#34;consolas&amp;#34; , &amp;#34;courier new&amp;#34; , monospace ; color: rgb(95 , 179 , 179)&quot;&gt;;&lt;/span&gt;&lt;/div&gt;&lt;div style=&quot;color: rgb(199 , 208 , 217) ; background-color: rgb(11 , 16 , 21) ; font-family: &amp;#34;operator mono lig&amp;#34; , &amp;#34;consolas&amp;#34; , &amp;#34;courier new&amp;#34; , monospace ; font-size: 16px ; line-height: 18px&quot;&gt;&lt;div&gt;&lt;span style=&quot;color: #6699cc&quot;&gt;&lt;br&gt;&lt;/span&gt;&lt;/div&gt;&lt;div&gt;&lt;span style=&quot;color: #6699cc&quot;&gt;append&lt;/span&gt;&lt;span style=&quot;color: #5fb3b3&quot;&gt;(&lt;/span&gt;&lt;span style=&quot;color: #f99157 ; font-style: italic&quot;&gt;10&lt;/span&gt;&lt;span style=&quot;color: #5fb3b3&quot;&gt;)&lt;/span&gt;&amp;nbsp;&lt;span style=&quot;color: #5fb3b3&quot;&gt;{&lt;/span&gt;&lt;/div&gt;&lt;div&gt;&amp;nbsp;&amp;nbsp;&lt;span style=&quot;color: #b267e6&quot;&gt;const&lt;/span&gt;&amp;nbsp;&lt;span style=&quot;color: #e5c07b&quot;&gt;newNode&lt;/span&gt;&amp;nbsp;&lt;span style=&quot;color: #5fb3b3&quot;&gt;=&lt;/span&gt;&amp;nbsp;&lt;span style=&quot;color: #5fb3b3&quot;&gt;{&lt;/span&gt;&lt;/div&gt;&lt;div&gt;&amp;nbsp; &amp;nbsp;&amp;nbsp;&lt;span style=&quot;color: #ef596f&quot;&gt;value: 10&lt;/span&gt;&lt;span style=&quot;color: #5fb3b3&quot;&gt;,&lt;/span&gt;&lt;/div&gt;&lt;div&gt;&amp;nbsp; &amp;nbsp;&amp;nbsp;&lt;span style=&quot;color: #ef596f&quot;&gt;next&lt;/span&gt;&lt;span style=&quot;color: #bbbbbb&quot;&gt;:&lt;/span&gt;&amp;nbsp;&lt;span style=&quot;color: #f99157&quot;&gt;null&lt;/span&gt;&lt;/div&gt;&lt;div&gt;&amp;nbsp;&amp;nbsp;&lt;span style=&quot;color: #5fb3b3&quot;&gt;}&lt;/span&gt;&lt;/div&gt;&lt;div&gt;&amp;nbsp;&amp;nbsp;&lt;span style=&quot;color: #e5c07b ; font-style: italic&quot;&gt;this&lt;/span&gt;&lt;span style=&quot;color: #5fb3b3&quot;&gt;.&lt;/span&gt;&lt;span style=&quot;color: #cdd3de&quot;&gt;tail&lt;/span&gt;&lt;span style=&quot;color: #5fb3b3&quot;&gt;.&lt;/span&gt;&lt;span style=&quot;color: #cdd3de&quot;&gt;next&lt;/span&gt;&amp;nbsp;&lt;span style=&quot;color: #5fb3b3&quot;&gt;=&lt;/span&gt;&amp;nbsp;&lt;span style=&quot;color: #ef596f&quot;&gt;newNode&lt;/span&gt;&lt;span style=&quot;color: #5fb3b3&quot;&gt;;&lt;/span&gt;&lt;/div&gt;&lt;div&gt;&amp;nbsp;&amp;nbsp;&lt;span style=&quot;color: #e5c07b ; font-style: italic&quot;&gt;this&lt;/span&gt;&lt;span style=&quot;color: #5fb3b3&quot;&gt;.&lt;/span&gt;&lt;span style=&quot;color: #cdd3de&quot;&gt;tail&lt;/span&gt;&amp;nbsp;&lt;span style=&quot;color: #5fb3b3&quot;&gt;=&lt;/span&gt;&amp;nbsp;&lt;span style=&quot;color: #ef596f&quot;&gt;newNode&lt;/span&gt;&lt;span style=&quot;color: #5fb3b3&quot;&gt;;&lt;/span&gt;&lt;/div&gt;&lt;div&gt;&amp;nbsp;&amp;nbsp;&lt;span style=&quot;color: #e5c07b ; font-style: italic&quot;&gt;this&lt;/span&gt;&lt;span style=&quot;color: #5fb3b3&quot;&gt;.&lt;/span&gt;&lt;span style=&quot;color: #ef596f&quot;&gt;length&lt;/span&gt;&lt;span style=&quot;color: #5fb3b3&quot;&gt;++; // 2&lt;/span&gt;&lt;/div&gt;&lt;div&gt;&amp;nbsp;&amp;nbsp;&lt;span style=&quot;color: #d55fde&quot;&gt;return&lt;/span&gt;&amp;nbsp;&lt;span style=&quot;color: #e5c07b ; font-style: italic&quot;&gt;this&lt;/span&gt;&lt;span style=&quot;color: #5fb3b3&quot;&gt;;&lt;/span&gt;&lt;/div&gt;&lt;/div&gt;&lt;div style=&quot;color: rgb(199 , 208 , 217) ; background-color: rgb(11 , 16 , 21) ; font-family: &amp;#34;operator mono lig&amp;#34; , &amp;#34;consolas&amp;#34; , &amp;#34;courier new&amp;#34; , monospace ; font-size: 16px ; line-height: 18px&quot;&gt;&lt;span style=&quot;font-family: &amp;#34;operator mono lig&amp;#34; , &amp;#34;consolas&amp;#34; , &amp;#34;courier new&amp;#34; , monospace ; color: rgb(95 , 179 , 179)&quot;&gt;}&lt;/span&gt;&lt;/div&gt;" style="text;html=1;strokeColor=none;fillColor=none;align=left;verticalAlign=middle;whiteSpace=wrap;rounded=0;fontSize=21;" vertex="1" parent="1">
                    <mxGeometry x="-240" y="370" width="240" height="220" as="geometry"/>
                </mxCell>
                <mxCell id="69" value="&lt;div style=&quot;color: rgb(199 , 208 , 217) ; background-color: rgb(11 , 16 , 21) ; font-family: &amp;#34;operator mono lig&amp;#34; , &amp;#34;consolas&amp;#34; , &amp;#34;courier new&amp;#34; , monospace ; font-size: 16px ; line-height: 18px&quot;&gt;&lt;span style=&quot;font-family: &amp;#34;operator mono lig&amp;#34; , &amp;#34;consolas&amp;#34; , &amp;#34;courier new&amp;#34; , monospace ; color: rgb(205 , 211 , 222)&quot;&gt;myLink&lt;/span&gt;&lt;span style=&quot;font-family: &amp;#34;operator mono lig&amp;#34; , &amp;#34;consolas&amp;#34; , &amp;#34;courier new&amp;#34; , monospace ; color: rgb(95 , 179 , 179)&quot;&gt;.&lt;/span&gt;&lt;span style=&quot;font-family: &amp;#34;operator mono lig&amp;#34; , &amp;#34;consolas&amp;#34; , &amp;#34;courier new&amp;#34; , monospace ; color: rgb(102 , 153 , 204)&quot;&gt;append&lt;/span&gt;&lt;span style=&quot;font-family: &amp;#34;operator mono lig&amp;#34; , &amp;#34;consolas&amp;#34; , &amp;#34;courier new&amp;#34; , monospace&quot;&gt;(&lt;/span&gt;&lt;span style=&quot;font-family: &amp;#34;operator mono lig&amp;#34; , &amp;#34;consolas&amp;#34; , &amp;#34;courier new&amp;#34; , monospace ; color: rgb(249 , 145 , 87)&quot;&gt;15&lt;/span&gt;&lt;span style=&quot;font-family: &amp;#34;operator mono lig&amp;#34; , &amp;#34;consolas&amp;#34; , &amp;#34;courier new&amp;#34; , monospace&quot;&gt;)&lt;/span&gt;&lt;span style=&quot;font-family: &amp;#34;operator mono lig&amp;#34; , &amp;#34;consolas&amp;#34; , &amp;#34;courier new&amp;#34; , monospace ; color: rgb(95 , 179 , 179)&quot;&gt;;&lt;/span&gt;&lt;/div&gt;&lt;div style=&quot;color: rgb(199 , 208 , 217) ; background-color: rgb(11 , 16 , 21) ; font-family: &amp;#34;operator mono lig&amp;#34; , &amp;#34;consolas&amp;#34; , &amp;#34;courier new&amp;#34; , monospace ; font-size: 16px ; line-height: 18px&quot;&gt;&lt;span style=&quot;font-family: &amp;#34;operator mono lig&amp;#34; , &amp;#34;consolas&amp;#34; , &amp;#34;courier new&amp;#34; , monospace ; color: rgb(95 , 179 , 179)&quot;&gt;&lt;br&gt;&lt;/span&gt;&lt;/div&gt;&lt;div style=&quot;color: rgb(199 , 208 , 217) ; background-color: rgb(11 , 16 , 21) ; font-family: &amp;#34;operator mono lig&amp;#34; , &amp;#34;consolas&amp;#34; , &amp;#34;courier new&amp;#34; , monospace ; font-size: 16px ; line-height: 18px&quot;&gt;&lt;div&gt;&lt;span style=&quot;color: #6699cc&quot;&gt;append&lt;/span&gt;&lt;span style=&quot;color: #5fb3b3&quot;&gt;(&lt;/span&gt;&lt;span style=&quot;color: #f99157 ; font-style: italic&quot;&gt;15&lt;/span&gt;&lt;span style=&quot;color: #5fb3b3&quot;&gt;)&lt;/span&gt;&amp;nbsp;&lt;span style=&quot;color: #5fb3b3&quot;&gt;{&lt;/span&gt;&lt;/div&gt;&lt;div&gt;&amp;nbsp;&amp;nbsp;&lt;span style=&quot;color: #b267e6&quot;&gt;const&lt;/span&gt;&amp;nbsp;&lt;span style=&quot;color: #e5c07b&quot;&gt;newNode&lt;/span&gt;&amp;nbsp;&lt;span style=&quot;color: #5fb3b3&quot;&gt;=&lt;/span&gt;&amp;nbsp;&lt;span style=&quot;color: #5fb3b3&quot;&gt;{&lt;/span&gt;&lt;/div&gt;&lt;div&gt;&amp;nbsp; &amp;nbsp;&amp;nbsp;&lt;span style=&quot;color: #ef596f&quot;&gt;value: 15&lt;/span&gt;&lt;span style=&quot;color: #5fb3b3&quot;&gt;,&lt;/span&gt;&lt;/div&gt;&lt;div&gt;&amp;nbsp; &amp;nbsp;&amp;nbsp;&lt;span style=&quot;color: #ef596f&quot;&gt;next&lt;/span&gt;&lt;span style=&quot;color: #bbbbbb&quot;&gt;:&lt;/span&gt;&amp;nbsp;&lt;span style=&quot;color: #f99157&quot;&gt;null&lt;/span&gt;&lt;/div&gt;&lt;div&gt;&amp;nbsp;&amp;nbsp;&lt;span style=&quot;color: #5fb3b3&quot;&gt;}&lt;/span&gt;&lt;/div&gt;&lt;div&gt;&amp;nbsp;&amp;nbsp;&lt;span style=&quot;color: #e5c07b ; font-style: italic&quot;&gt;this&lt;/span&gt;&lt;span style=&quot;color: #5fb3b3&quot;&gt;.&lt;/span&gt;&lt;span style=&quot;color: #cdd3de&quot;&gt;tail&lt;/span&gt;&lt;span style=&quot;color: #5fb3b3&quot;&gt;.&lt;/span&gt;&lt;span style=&quot;color: #cdd3de&quot;&gt;next&lt;/span&gt;&amp;nbsp;&lt;span style=&quot;color: #5fb3b3&quot;&gt;=&lt;/span&gt;&amp;nbsp;&lt;span style=&quot;color: #ef596f&quot;&gt;newNode&lt;/span&gt;&lt;span style=&quot;color: #5fb3b3&quot;&gt;;&lt;/span&gt;&lt;/div&gt;&lt;div&gt;&amp;nbsp;&amp;nbsp;&lt;span style=&quot;color: #e5c07b ; font-style: italic&quot;&gt;this&lt;/span&gt;&lt;span style=&quot;color: #5fb3b3&quot;&gt;.&lt;/span&gt;&lt;span style=&quot;color: #cdd3de&quot;&gt;tail&lt;/span&gt;&amp;nbsp;&lt;span style=&quot;color: #5fb3b3&quot;&gt;=&lt;/span&gt;&amp;nbsp;&lt;span style=&quot;color: #ef596f&quot;&gt;newNode&lt;/span&gt;&lt;span style=&quot;color: #5fb3b3&quot;&gt;;&lt;/span&gt;&lt;/div&gt;&lt;div&gt;&amp;nbsp;&amp;nbsp;&lt;span style=&quot;color: #e5c07b ; font-style: italic&quot;&gt;this&lt;/span&gt;&lt;span style=&quot;color: #5fb3b3&quot;&gt;.&lt;/span&gt;&lt;span style=&quot;color: #ef596f&quot;&gt;length&lt;/span&gt;&lt;span style=&quot;color: #5fb3b3&quot;&gt;++; // 3&lt;/span&gt;&lt;/div&gt;&lt;div&gt;&amp;nbsp;&amp;nbsp;&lt;span style=&quot;color: #d55fde&quot;&gt;return&lt;/span&gt;&amp;nbsp;&lt;span style=&quot;color: #e5c07b ; font-style: italic&quot;&gt;this&lt;/span&gt;&lt;span style=&quot;color: #5fb3b3&quot;&gt;;&lt;/span&gt;&lt;/div&gt;&lt;/div&gt;&lt;div style=&quot;color: rgb(199 , 208 , 217) ; background-color: rgb(11 , 16 , 21) ; font-family: &amp;#34;operator mono lig&amp;#34; , &amp;#34;consolas&amp;#34; , &amp;#34;courier new&amp;#34; , monospace ; font-size: 16px ; line-height: 18px&quot;&gt;&lt;span style=&quot;font-family: &amp;#34;operator mono lig&amp;#34; , &amp;#34;consolas&amp;#34; , &amp;#34;courier new&amp;#34; , monospace ; color: rgb(95 , 179 , 179)&quot;&gt;}&lt;/span&gt;&lt;/div&gt;" style="text;html=1;strokeColor=none;fillColor=none;align=left;verticalAlign=middle;whiteSpace=wrap;rounded=0;fontSize=21;" vertex="1" parent="1">
                    <mxGeometry x="-240" y="690" width="240" height="220" as="geometry"/>
                </mxCell>
                <mxCell id="70" value="&lt;div style=&quot;background-color: rgb(11 , 16 , 21) ; font-family: &amp;#34;operator mono lig&amp;#34; , &amp;#34;consolas&amp;#34; , &amp;#34;courier new&amp;#34; , monospace ; font-size: 16px ; line-height: 18px&quot;&gt;&lt;div style=&quot;color: rgb(199 , 208 , 217)&quot;&gt;&lt;span style=&quot;color: #e5c07b&quot;&gt;LinkedList&lt;/span&gt;&amp;nbsp;&lt;span style=&quot;color: #5fb3b3&quot;&gt;=&lt;/span&gt;&amp;nbsp;&lt;span style=&quot;color: #5fb3b3&quot;&gt;{&amp;nbsp; &amp;nbsp; &amp;nbsp; &amp;nbsp;&lt;/span&gt;&lt;/div&gt;&lt;div style=&quot;color: rgb(199 , 208 , 217)&quot;&gt;&amp;nbsp;&amp;nbsp;&lt;span style=&quot;color: #ef596f&quot;&gt;head&lt;/span&gt;&lt;span style=&quot;color: #bbbbbb&quot;&gt;:&lt;/span&gt;&amp;nbsp;&lt;span style=&quot;color: #5fb3b3&quot;&gt;{&lt;/span&gt;&lt;/div&gt;&lt;div style=&quot;color: rgb(199 , 208 , 217)&quot;&gt;&amp;nbsp;&amp;nbsp;&amp;nbsp;&amp;nbsp;&lt;span style=&quot;color: #ef596f&quot;&gt;value&lt;/span&gt;&lt;span style=&quot;color: #bbbbbb&quot;&gt;:&lt;/span&gt;&amp;nbsp;&lt;span style=&quot;color: #f99157&quot;&gt;5&lt;/span&gt;&lt;span style=&quot;color: #5fb3b3&quot;&gt;,&lt;/span&gt;&lt;/div&gt;&lt;div style=&quot;color: rgb(199 , 208 , 217)&quot;&gt;&amp;nbsp;&amp;nbsp;&amp;nbsp;&amp;nbsp;&lt;span style=&quot;color: #ef596f&quot;&gt;next&lt;/span&gt;&lt;span style=&quot;color: #bbbbbb&quot;&gt;:&amp;nbsp;&lt;/span&gt;&lt;span style=&quot;color: rgb(249 , 145 , 87)&quot;&gt;null&lt;/span&gt;&lt;/div&gt;&lt;div style=&quot;color: rgb(199 , 208 , 217)&quot;&gt;&amp;nbsp;&amp;nbsp;&lt;span style=&quot;color: #5fb3b3&quot;&gt;},&lt;/span&gt;&lt;/div&gt;&lt;div style=&quot;color: rgb(199 , 208 , 217)&quot;&gt;&amp;nbsp;&amp;nbsp;&lt;span style=&quot;color: #ef596f&quot;&gt;tail&lt;/span&gt;&lt;span style=&quot;color: #bbbbbb&quot;&gt;:&lt;/span&gt;&amp;nbsp;&lt;span style=&quot;color: #5fb3b3&quot;&gt;{&lt;/span&gt;&lt;/div&gt;&lt;div style=&quot;color: rgb(199 , 208 , 217)&quot;&gt;&amp;nbsp;&amp;nbsp;&amp;nbsp;&amp;nbsp;&lt;span style=&quot;color: #ef596f&quot;&gt;value&lt;/span&gt;&lt;span style=&quot;color: #bbbbbb&quot;&gt;:&lt;/span&gt;&amp;nbsp;&lt;span style=&quot;color: #f99157&quot;&gt;5&lt;/span&gt;&lt;span style=&quot;color: #5fb3b3&quot;&gt;,&lt;/span&gt;&lt;/div&gt;&lt;div style=&quot;color: rgb(199 , 208 , 217)&quot;&gt;&amp;nbsp;&amp;nbsp;&amp;nbsp;&amp;nbsp;&lt;span style=&quot;color: #ef596f&quot;&gt;next&lt;/span&gt;&lt;span style=&quot;color: #bbbbbb&quot;&gt;:&lt;/span&gt;&amp;nbsp;&lt;span style=&quot;color: #f99157&quot;&gt;null&lt;/span&gt;&lt;/div&gt;&lt;div style=&quot;color: rgb(199 , 208 , 217)&quot;&gt;&amp;nbsp;&amp;nbsp;&lt;span style=&quot;color: #5fb3b3&quot;&gt;},&lt;/span&gt;&lt;/div&gt;&lt;div&gt;&lt;font color=&quot;#c7d0d9&quot;&gt;&amp;nbsp;&amp;nbsp;&lt;/font&gt;&lt;span style=&quot;color: rgb(239 , 89 , 111)&quot;&gt;length&lt;/span&gt;&lt;span style=&quot;color: rgb(187 , 187 , 187)&quot;&gt;:&lt;/span&gt;&lt;font color=&quot;#c7d0d9&quot;&gt;&amp;nbsp;&lt;/font&gt;&lt;font color=&quot;#f99157&quot;&gt;1&lt;/font&gt;&lt;/div&gt;&lt;div style=&quot;color: rgb(199 , 208 , 217)&quot;&gt;&lt;span style=&quot;color: #5fb3b3&quot;&gt;}&lt;/span&gt;&lt;/div&gt;&lt;/div&gt;" style="text;html=1;strokeColor=none;fillColor=none;align=left;verticalAlign=middle;whiteSpace=wrap;rounded=0;fontSize=21;" vertex="1" parent="1">
                    <mxGeometry x="250" y="90.75" width="190" height="202.5" as="geometry"/>
                </mxCell>
                <mxCell id="71" value="&lt;div style=&quot;background-color: rgb(11 , 16 , 21) ; font-family: &amp;#34;operator mono lig&amp;#34; , &amp;#34;consolas&amp;#34; , &amp;#34;courier new&amp;#34; , monospace ; font-size: 16px ; line-height: 18px&quot;&gt;&lt;div style=&quot;color: rgb(199 , 208 , 217)&quot;&gt;&lt;span style=&quot;color: #e5c07b&quot;&gt;LinkedList&lt;/span&gt;&amp;nbsp;&lt;span style=&quot;color: #5fb3b3&quot;&gt;=&lt;/span&gt;&amp;nbsp;&lt;span style=&quot;color: #5fb3b3&quot;&gt;{&amp;nbsp; &amp;nbsp; &amp;nbsp; &amp;nbsp;&lt;/span&gt;&lt;/div&gt;&lt;div style=&quot;color: rgb(199 , 208 , 217)&quot;&gt;&amp;nbsp;&amp;nbsp;&lt;span style=&quot;color: #ef596f&quot;&gt;head&lt;/span&gt;&lt;span style=&quot;color: #bbbbbb&quot;&gt;:&lt;/span&gt;&amp;nbsp;&lt;span style=&quot;color: #5fb3b3&quot;&gt;{&lt;/span&gt;&lt;/div&gt;&lt;div style=&quot;color: rgb(199 , 208 , 217)&quot;&gt;&amp;nbsp;&amp;nbsp;&amp;nbsp;&amp;nbsp;&lt;span style=&quot;color: #ef596f&quot;&gt;value&lt;/span&gt;&lt;span style=&quot;color: #bbbbbb&quot;&gt;:&lt;/span&gt;&amp;nbsp;&lt;span style=&quot;color: #f99157&quot;&gt;5&lt;/span&gt;&lt;span style=&quot;color: #5fb3b3&quot;&gt;,&lt;/span&gt;&lt;/div&gt;&lt;div style=&quot;color: rgb(199 , 208 , 217)&quot;&gt;&amp;nbsp;&amp;nbsp;&amp;nbsp;&amp;nbsp;&lt;span style=&quot;color: #ef596f&quot;&gt;next&lt;/span&gt;&lt;span style=&quot;color: #bbbbbb&quot;&gt;:&lt;/span&gt;&amp;nbsp;&lt;span style=&quot;color: #5fb3b3&quot;&gt;{&lt;/span&gt;&lt;/div&gt;&lt;div style=&quot;color: rgb(199 , 208 , 217)&quot;&gt;&amp;nbsp;&amp;nbsp;&amp;nbsp;&amp;nbsp;&amp;nbsp;&amp;nbsp;&lt;span style=&quot;color: #ef596f&quot;&gt;value&lt;/span&gt;&lt;span style=&quot;color: #bbbbbb&quot;&gt;:&lt;/span&gt;&amp;nbsp;&lt;span style=&quot;color: #f99157&quot;&gt;10&lt;/span&gt;&lt;span style=&quot;color: #5fb3b3&quot;&gt;,&lt;/span&gt;&lt;/div&gt;&lt;div style=&quot;color: rgb(199 , 208 , 217)&quot;&gt;&amp;nbsp;&amp;nbsp;&amp;nbsp;&amp;nbsp;&amp;nbsp;&amp;nbsp;&lt;span style=&quot;color: #ef596f&quot;&gt;next&lt;/span&gt;&lt;span style=&quot;color: #bbbbbb&quot;&gt;:&lt;/span&gt;&amp;nbsp;&lt;span style=&quot;color: rgb(249 , 145 , 87)&quot;&gt;null&lt;/span&gt;&lt;/div&gt;&lt;div style=&quot;color: rgb(199 , 208 , 217)&quot;&gt;&amp;nbsp;&amp;nbsp;&amp;nbsp;&amp;nbsp;&lt;span style=&quot;color: #5fb3b3&quot;&gt;}&lt;/span&gt;&lt;/div&gt;&lt;div style=&quot;color: rgb(199 , 208 , 217)&quot;&gt;&amp;nbsp;&amp;nbsp;&lt;span style=&quot;color: #5fb3b3&quot;&gt;},&lt;/span&gt;&lt;/div&gt;&lt;div style=&quot;color: rgb(199 , 208 , 217)&quot;&gt;&amp;nbsp;&amp;nbsp;&lt;span style=&quot;color: #ef596f&quot;&gt;tail&lt;/span&gt;&lt;span style=&quot;color: #bbbbbb&quot;&gt;:&lt;/span&gt;&amp;nbsp;&lt;span style=&quot;color: #5fb3b3&quot;&gt;{&lt;/span&gt;&lt;/div&gt;&lt;div style=&quot;color: rgb(199 , 208 , 217)&quot;&gt;&amp;nbsp;&amp;nbsp;&amp;nbsp;&amp;nbsp;&lt;span style=&quot;color: #ef596f&quot;&gt;value&lt;/span&gt;&lt;span style=&quot;color: #bbbbbb&quot;&gt;:&lt;/span&gt;&amp;nbsp;&lt;span style=&quot;color: #f99157&quot;&gt;10&lt;/span&gt;&lt;span style=&quot;color: #5fb3b3&quot;&gt;,&lt;/span&gt;&lt;/div&gt;&lt;div style=&quot;color: rgb(199 , 208 , 217)&quot;&gt;&amp;nbsp;&amp;nbsp;&amp;nbsp;&amp;nbsp;&lt;span style=&quot;color: #ef596f&quot;&gt;next&lt;/span&gt;&lt;span style=&quot;color: #bbbbbb&quot;&gt;:&lt;/span&gt;&amp;nbsp;&lt;span style=&quot;color: #f99157&quot;&gt;null&lt;/span&gt;&lt;/div&gt;&lt;div style=&quot;color: rgb(199 , 208 , 217)&quot;&gt;&amp;nbsp;&amp;nbsp;&lt;span style=&quot;color: #5fb3b3&quot;&gt;},&lt;/span&gt;&lt;/div&gt;&lt;div&gt;&lt;font color=&quot;#c7d0d9&quot;&gt;&amp;nbsp;&amp;nbsp;&lt;/font&gt;&lt;span style=&quot;color: rgb(239 , 89 , 111)&quot;&gt;length&lt;/span&gt;&lt;span style=&quot;color: rgb(187 , 187 , 187)&quot;&gt;:&lt;/span&gt;&lt;font color=&quot;#c7d0d9&quot;&gt;&amp;nbsp;&lt;/font&gt;&lt;font color=&quot;#f99157&quot;&gt;2&lt;/font&gt;&lt;/div&gt;&lt;div style=&quot;color: rgb(199 , 208 , 217)&quot;&gt;&lt;span style=&quot;color: #5fb3b3&quot;&gt;}&lt;/span&gt;&lt;/div&gt;&lt;/div&gt;" style="text;html=1;strokeColor=none;fillColor=none;align=left;verticalAlign=middle;whiteSpace=wrap;rounded=0;fontSize=21;" vertex="1" parent="1">
                    <mxGeometry x="414" y="370" width="196" height="260" as="geometry"/>
                </mxCell>
                <mxCell id="72" value="&lt;div style=&quot;background-color: rgb(11 , 16 , 21) ; font-family: &amp;#34;operator mono lig&amp;#34; , &amp;#34;consolas&amp;#34; , &amp;#34;courier new&amp;#34; , monospace ; font-size: 16px ; line-height: 18px&quot;&gt;&lt;div style=&quot;color: rgb(199 , 208 , 217)&quot;&gt;&lt;span style=&quot;color: #e5c07b&quot;&gt;LinkedList&lt;/span&gt;&amp;nbsp;&lt;span style=&quot;color: #5fb3b3&quot;&gt;=&lt;/span&gt;&amp;nbsp;&lt;span style=&quot;color: #5fb3b3&quot;&gt;{&amp;nbsp; &amp;nbsp; &amp;nbsp; &amp;nbsp;&amp;nbsp;&lt;/span&gt;&lt;/div&gt;&lt;div style=&quot;color: rgb(199 , 208 , 217)&quot;&gt;&amp;nbsp;&amp;nbsp;&lt;span style=&quot;color: #ef596f&quot;&gt;head&lt;/span&gt;&lt;span style=&quot;color: #bbbbbb&quot;&gt;:&lt;/span&gt;&amp;nbsp;&lt;span style=&quot;color: #5fb3b3&quot;&gt;{&lt;/span&gt;&lt;/div&gt;&lt;div style=&quot;color: rgb(199 , 208 , 217)&quot;&gt;&amp;nbsp;&amp;nbsp;&amp;nbsp;&amp;nbsp;&lt;span style=&quot;color: #ef596f&quot;&gt;value&lt;/span&gt;&lt;span style=&quot;color: #bbbbbb&quot;&gt;:&lt;/span&gt;&amp;nbsp;&lt;span style=&quot;color: #f99157&quot;&gt;5&lt;/span&gt;&lt;span style=&quot;color: #5fb3b3&quot;&gt;,&lt;/span&gt;&lt;/div&gt;&lt;div style=&quot;color: rgb(199 , 208 , 217)&quot;&gt;&amp;nbsp;&amp;nbsp;&amp;nbsp;&amp;nbsp;&lt;span style=&quot;color: #ef596f&quot;&gt;next&lt;/span&gt;&lt;span style=&quot;color: #bbbbbb&quot;&gt;:&lt;/span&gt;&amp;nbsp;&lt;span style=&quot;color: #5fb3b3&quot;&gt;{&lt;/span&gt;&lt;/div&gt;&lt;div style=&quot;color: rgb(199 , 208 , 217)&quot;&gt;&amp;nbsp;&amp;nbsp;&amp;nbsp;&amp;nbsp;&amp;nbsp;&amp;nbsp;&lt;span style=&quot;color: #ef596f&quot;&gt;value&lt;/span&gt;&lt;span style=&quot;color: #bbbbbb&quot;&gt;:&lt;/span&gt;&amp;nbsp;&lt;span style=&quot;color: #f99157&quot;&gt;10&lt;/span&gt;&lt;span style=&quot;color: #5fb3b3&quot;&gt;,&lt;/span&gt;&lt;/div&gt;&lt;div style=&quot;color: rgb(199 , 208 , 217)&quot;&gt;&amp;nbsp;&amp;nbsp;&amp;nbsp;&amp;nbsp;&amp;nbsp;&amp;nbsp;&lt;span style=&quot;color: #ef596f&quot;&gt;next&lt;/span&gt;&lt;span style=&quot;color: #bbbbbb&quot;&gt;:&lt;/span&gt;&amp;nbsp;&lt;span style=&quot;color: #5fb3b3&quot;&gt;{&lt;/span&gt;&lt;/div&gt;&lt;div style=&quot;color: rgb(199 , 208 , 217)&quot;&gt;&amp;nbsp;&amp;nbsp;&amp;nbsp;&amp;nbsp;&amp;nbsp;&amp;nbsp;&amp;nbsp;&amp;nbsp;&lt;span style=&quot;color: #ef596f&quot;&gt;value&lt;/span&gt;&lt;span style=&quot;color: #bbbbbb&quot;&gt;:&lt;/span&gt;&amp;nbsp;&lt;span style=&quot;color: #f99157&quot;&gt;15&lt;/span&gt;&lt;span style=&quot;color: #5fb3b3&quot;&gt;,&lt;/span&gt;&lt;/div&gt;&lt;div style=&quot;color: rgb(199 , 208 , 217)&quot;&gt;&amp;nbsp;&amp;nbsp;&amp;nbsp;&amp;nbsp;&amp;nbsp;&amp;nbsp;&amp;nbsp;&amp;nbsp;&lt;span style=&quot;color: #ef596f&quot;&gt;next&lt;/span&gt;&lt;span style=&quot;color: #bbbbbb&quot;&gt;:&lt;/span&gt;&amp;nbsp;&lt;span style=&quot;color: #f99157&quot;&gt;null&lt;/span&gt;&lt;/div&gt;&lt;div style=&quot;color: rgb(199 , 208 , 217)&quot;&gt;&amp;nbsp;&amp;nbsp;&amp;nbsp;&amp;nbsp;&amp;nbsp;&amp;nbsp;&lt;span style=&quot;color: #5fb3b3&quot;&gt;}&lt;/span&gt;&lt;/div&gt;&lt;div style=&quot;color: rgb(199 , 208 , 217)&quot;&gt;&amp;nbsp;&amp;nbsp;&amp;nbsp;&amp;nbsp;&lt;span style=&quot;color: #5fb3b3&quot;&gt;}&lt;/span&gt;&lt;/div&gt;&lt;div style=&quot;color: rgb(199 , 208 , 217)&quot;&gt;&amp;nbsp;&amp;nbsp;&lt;span style=&quot;color: #5fb3b3&quot;&gt;},&lt;/span&gt;&lt;/div&gt;&lt;div style=&quot;color: rgb(199 , 208 , 217)&quot;&gt;&amp;nbsp;&amp;nbsp;&lt;span style=&quot;color: #ef596f&quot;&gt;tail&lt;/span&gt;&lt;span style=&quot;color: #bbbbbb&quot;&gt;:&lt;/span&gt;&amp;nbsp;&lt;span style=&quot;color: #5fb3b3&quot;&gt;{&lt;/span&gt;&lt;/div&gt;&lt;div style=&quot;color: rgb(199 , 208 , 217)&quot;&gt;&amp;nbsp;&amp;nbsp;&amp;nbsp;&amp;nbsp;&lt;span style=&quot;color: #ef596f&quot;&gt;value&lt;/span&gt;&lt;span style=&quot;color: #bbbbbb&quot;&gt;:&lt;/span&gt;&amp;nbsp;&lt;span style=&quot;color: #f99157&quot;&gt;15&lt;/span&gt;&lt;span style=&quot;color: #5fb3b3&quot;&gt;,&lt;/span&gt;&lt;/div&gt;&lt;div style=&quot;color: rgb(199 , 208 , 217)&quot;&gt;&amp;nbsp;&amp;nbsp;&amp;nbsp;&amp;nbsp;&lt;span style=&quot;color: #ef596f&quot;&gt;next&lt;/span&gt;&lt;span style=&quot;color: #bbbbbb&quot;&gt;:&lt;/span&gt;&amp;nbsp;&lt;span style=&quot;color: #f99157&quot;&gt;null&lt;/span&gt;&lt;/div&gt;&lt;div style=&quot;color: rgb(199 , 208 , 217)&quot;&gt;&amp;nbsp;&amp;nbsp;&lt;span style=&quot;color: #5fb3b3&quot;&gt;},&lt;/span&gt;&lt;/div&gt;&lt;div&gt;&lt;font color=&quot;#c7d0d9&quot;&gt;&amp;nbsp;&amp;nbsp;&lt;/font&gt;&lt;span style=&quot;color: rgb(239 , 89 , 111)&quot;&gt;length&lt;/span&gt;&lt;span style=&quot;color: rgb(187 , 187 , 187)&quot;&gt;:&lt;/span&gt;&lt;font color=&quot;#c7d0d9&quot;&gt;&amp;nbsp;&lt;/font&gt;&lt;font color=&quot;#f99157&quot;&gt;3&lt;/font&gt;&lt;/div&gt;&lt;div style=&quot;color: rgb(199 , 208 , 217)&quot;&gt;&lt;span style=&quot;color: #5fb3b3&quot;&gt;}&lt;/span&gt;&lt;/div&gt;&lt;/div&gt;" style="text;html=1;strokeColor=none;fillColor=none;align=left;verticalAlign=middle;whiteSpace=wrap;rounded=0;fontSize=21;" vertex="1" parent="1">
                    <mxGeometry x="580" y="690" width="200" height="310" as="geometry"/>
                </mxCell>
            </root>
        </mxGraphModel>
    </diagram>
</mxfile>
